<?xml version="1.0" encoding="UTF-8" standalone="no"?><svg xmlns="http://www.w3.org/2000/svg" xmlns:xlink="http://www.w3.org/1999/xlink" contentScriptType="application/ecmascript" contentStyleType="text/css" height="221px" preserveAspectRatio="none" style="width:246px;height:221px;" version="1.1" viewBox="0 0 246 221" width="246px" zoomAndPan="magnify"><defs><filter height="300%" id="f1q1sb7fc7cuaj" width="300%" x="-1" y="-1"><feGaussianBlur result="blurOut" stdDeviation="2.0"/><feColorMatrix in="blurOut" result="blurOut2" type="matrix" values="0 0 0 0 0 0 0 0 0 0 0 0 0 0 0 0 0 0 .4 0"/><feOffset dx="4.0" dy="4.0" in="blurOut2" result="blurOut3"/><feBlend in="SourceGraphic" in2="blurOut3" mode="normal"/></filter></defs><g><text fill="#000000" font-family="sans-serif" font-size="18" lengthAdjust="spacingAndGlyphs" textLength="185" x="34" y="16.708">Auth - Class Diagram</text><!--class UserId--><rect fill="#FEFECE" filter="url(#f1q1sb7fc7cuaj)" height="48" id="UserId" style="stroke: #A80036; stroke-width: 1.5;" width="72" x="6" y="41.9531"/><ellipse cx="21" cy="57.9531" fill="#ADD1B2" rx="11" ry="11" style="stroke: #A80036; stroke-width: 1.0;"/><path d="M23.3438,53.625 L23.5156,53.7031 C23.7344,53.3906 23.9375,53.2969 24.2344,53.2969 C24.5313,53.2969 24.8125,53.4375 24.9688,53.7031 C25.0625,53.8594 25.0781,53.9844 25.0781,54.4219 L25.0781,55.8438 C25.0781,56.2656 25.0469,56.4531 24.9375,56.6094 C24.7656,56.8281 24.5,56.9688 24.2344,56.9688 C24.0156,56.9688 23.7813,56.8594 23.6406,56.7188 C23.5,56.5938 23.4688,56.4688 23.4063,56.0625 C23.3125,55.6563 23.1406,55.4375 22.6563,55.1563 C22.1875,54.9063 21.5781,54.75 21,54.75 C19.2656,54.75 18.0156,56.0625 18.0156,57.8438 L18.0156,58.9375 C18.0156,60.6406 19.3125,61.7344 21.3594,61.7344 C22.125,61.7344 22.8125,61.6094 23.2344,61.3438 C23.4219,61.25 23.4219,61.25 23.875,60.7656 C24.0625,60.5781 24.2656,60.5 24.4844,60.5 C24.9531,60.5 25.3438,60.8906 25.3438,61.3438 C25.3438,61.7344 25.0156,62.1875 24.4375,62.5938 C23.6875,63.1406 22.5313,63.4375 21.3125,63.4375 C18.4219,63.4375 16.3125,61.5469 16.3125,58.9688 L16.3125,57.8438 C16.3125,55.125 18.3125,53.0469 20.9375,53.0469 C21.8125,53.0469 22.4063,53.1875 23.3438,53.625 Z "/><text fill="#000000" font-family="sans-serif" font-size="12" lengthAdjust="spacingAndGlyphs" textLength="40" x="35" y="62.1074">UserId</text><line style="stroke: #A80036; stroke-width: 1.5;" x1="7" x2="77" y1="73.9531" y2="73.9531"/><line style="stroke: #A80036; stroke-width: 1.5;" x1="7" x2="77" y1="81.9531" y2="81.9531"/><!--class User--><rect fill="#FEFECE" filter="url(#f1q1sb7fc7cuaj)" height="73.6094" id="User" style="stroke: #A80036; stroke-width: 1.5;" width="122" x="113" y="28.9531"/><ellipse cx="155.45" cy="44.9531" fill="#ADD1B2" rx="11" ry="11" style="stroke: #A80036; stroke-width: 1.0;"/><path d="M157.7938,40.625 L157.9656,40.7031 C158.1844,40.3906 158.3875,40.2969 158.6844,40.2969 C158.9813,40.2969 159.2625,40.4375 159.4188,40.7031 C159.5125,40.8594 159.5281,40.9844 159.5281,41.4219 L159.5281,42.8438 C159.5281,43.2656 159.4969,43.4531 159.3875,43.6094 C159.2156,43.8281 158.95,43.9688 158.6844,43.9688 C158.4656,43.9688 158.2313,43.8594 158.0906,43.7188 C157.95,43.5938 157.9188,43.4688 157.8563,43.0625 C157.7625,42.6563 157.5906,42.4375 157.1063,42.1563 C156.6375,41.9063 156.0281,41.75 155.45,41.75 C153.7156,41.75 152.4656,43.0625 152.4656,44.8438 L152.4656,45.9375 C152.4656,47.6406 153.7625,48.7344 155.8094,48.7344 C156.575,48.7344 157.2625,48.6094 157.6844,48.3438 C157.8719,48.25 157.8719,48.25 158.325,47.7656 C158.5125,47.5781 158.7156,47.5 158.9344,47.5 C159.4031,47.5 159.7938,47.8906 159.7938,48.3438 C159.7938,48.7344 159.4656,49.1875 158.8875,49.5938 C158.1375,50.1406 156.9813,50.4375 155.7625,50.4375 C152.8719,50.4375 150.7625,48.5469 150.7625,45.9688 L150.7625,44.8438 C150.7625,42.125 152.7625,40.0469 155.3875,40.0469 C156.2625,40.0469 156.8563,40.1875 157.7938,40.625 Z "/><text fill="#000000" font-family="sans-serif" font-size="12" lengthAdjust="spacingAndGlyphs" textLength="29" x="175.55" y="49.1074">User</text><line style="stroke: #A80036; stroke-width: 1.5;" x1="114" x2="234" y1="60.9531" y2="60.9531"/><ellipse cx="124" cy="72.8555" fill="none" rx="3" ry="3" style="stroke: #038048; stroke-width: 1.0;"/><text fill="#000000" font-family="sans-serif" font-size="11" lengthAdjust="spacingAndGlyphs" textLength="96" x="133" y="75.1636">String username</text><ellipse cx="124" cy="85.6602" fill="none" rx="3" ry="3" style="stroke: #038048; stroke-width: 1.0;"/><text fill="#000000" font-family="sans-serif" font-size="11" lengthAdjust="spacingAndGlyphs" textLength="94" x="133" y="87.9683">String password</text><line style="stroke: #A80036; stroke-width: 1.5;" x1="114" x2="234" y1="94.5625" y2="94.5625"/><!--class Role--><rect fill="#FEFECE" filter="url(#f1q1sb7fc7cuaj)" height="48" id="Role" style="stroke: #A80036; stroke-width: 1.5;" width="59" x="144.5" y="162.9531"/><ellipse cx="159.5" cy="178.9531" fill="#ADD1B2" rx="11" ry="11" style="stroke: #A80036; stroke-width: 1.0;"/><path d="M161.8438,174.625 L162.0156,174.7031 C162.2344,174.3906 162.4375,174.2969 162.7344,174.2969 C163.0313,174.2969 163.3125,174.4375 163.4688,174.7031 C163.5625,174.8594 163.5781,174.9844 163.5781,175.4219 L163.5781,176.8438 C163.5781,177.2656 163.5469,177.4531 163.4375,177.6094 C163.2656,177.8281 163,177.9688 162.7344,177.9688 C162.5156,177.9688 162.2813,177.8594 162.1406,177.7188 C162,177.5938 161.9688,177.4688 161.9063,177.0625 C161.8125,176.6563 161.6406,176.4375 161.1563,176.1563 C160.6875,175.9063 160.0781,175.75 159.5,175.75 C157.7656,175.75 156.5156,177.0625 156.5156,178.8438 L156.5156,179.9375 C156.5156,181.6406 157.8125,182.7344 159.8594,182.7344 C160.625,182.7344 161.3125,182.6094 161.7344,182.3438 C161.9219,182.25 161.9219,182.25 162.375,181.7656 C162.5625,181.5781 162.7656,181.5 162.9844,181.5 C163.4531,181.5 163.8438,181.8906 163.8438,182.3438 C163.8438,182.7344 163.5156,183.1875 162.9375,183.5938 C162.1875,184.1406 161.0313,184.4375 159.8125,184.4375 C156.9219,184.4375 154.8125,182.5469 154.8125,179.9688 L154.8125,178.8438 C154.8125,176.125 156.8125,174.0469 159.4375,174.0469 C160.3125,174.0469 160.9063,174.1875 161.8438,174.625 Z "/><text fill="#000000" font-family="sans-serif" font-size="12" lengthAdjust="spacingAndGlyphs" textLength="27" x="173.5" y="183.1074">Role</text><line style="stroke: #A80036; stroke-width: 1.5;" x1="145.5" x2="202.5" y1="194.9531" y2="194.9531"/><line style="stroke: #A80036; stroke-width: 1.5;" x1="145.5" x2="202.5" y1="202.9531" y2="202.9531"/><!--class Privilege--><rect fill="#FEFECE" filter="url(#f1q1sb7fc7cuaj)" height="48" id="Privilege" style="stroke: #A80036; stroke-width: 1.5;" width="84" x="25" y="162.9531"/><ellipse cx="40" cy="178.9531" fill="#ADD1B2" rx="11" ry="11" style="stroke: #A80036; stroke-width: 1.0;"/><path d="M42.3438,174.625 L42.5156,174.7031 C42.7344,174.3906 42.9375,174.2969 43.2344,174.2969 C43.5313,174.2969 43.8125,174.4375 43.9688,174.7031 C44.0625,174.8594 44.0781,174.9844 44.0781,175.4219 L44.0781,176.8438 C44.0781,177.2656 44.0469,177.4531 43.9375,177.6094 C43.7656,177.8281 43.5,177.9688 43.2344,177.9688 C43.0156,177.9688 42.7813,177.8594 42.6406,177.7188 C42.5,177.5938 42.4688,177.4688 42.4063,177.0625 C42.3125,176.6563 42.1406,176.4375 41.6563,176.1563 C41.1875,175.9063 40.5781,175.75 40,175.75 C38.2656,175.75 37.0156,177.0625 37.0156,178.8438 L37.0156,179.9375 C37.0156,181.6406 38.3125,182.7344 40.3594,182.7344 C41.125,182.7344 41.8125,182.6094 42.2344,182.3438 C42.4219,182.25 42.4219,182.25 42.875,181.7656 C43.0625,181.5781 43.2656,181.5 43.4844,181.5 C43.9531,181.5 44.3438,181.8906 44.3438,182.3438 C44.3438,182.7344 44.0156,183.1875 43.4375,183.5938 C42.6875,184.1406 41.5313,184.4375 40.3125,184.4375 C37.4219,184.4375 35.3125,182.5469 35.3125,179.9688 L35.3125,178.8438 C35.3125,176.125 37.3125,174.0469 39.9375,174.0469 C40.8125,174.0469 41.4063,174.1875 42.3438,174.625 Z "/><text fill="#000000" font-family="sans-serif" font-size="12" lengthAdjust="spacingAndGlyphs" textLength="52" x="54" y="183.1074">Privilege</text><line style="stroke: #A80036; stroke-width: 1.5;" x1="26" x2="108" y1="194.9531" y2="194.9531"/><line style="stroke: #A80036; stroke-width: 1.5;" x1="26" x2="108" y1="202.9531" y2="202.9531"/><!--link UserId to User--><path d="M83.2655,65.9531 C93.1552,65.9531 103.0449,65.9531 112.935,65.9531 " fill="none" id="UserId-User" style="stroke: #A80036; stroke-width: 1.0;"/><polygon fill="#A80036" points="78.0938,65.9531,87.0938,69.9531,83.0938,65.9531,87.0938,61.9531,78.0938,65.9531" style="stroke: #A80036; stroke-width: 1.0;"/><!--link User to Role--><path d="M174,116.1915 C174,132.3402 174,149.5288 174,162.8036 " fill="none" id="User-Role" style="stroke: #A80036; stroke-width: 1.0;"/><polygon fill="#A80036" points="174,102.9801,170,108.9801,174,114.9801,178,108.9801,174,102.9801" style="stroke: #A80036; stroke-width: 1.0;"/><text fill="#000000" font-family="sans-serif" font-size="13" lengthAdjust="spacingAndGlyphs" textLength="8" x="165.3125" y="122.7451">1</text><text fill="#000000" font-family="sans-serif" font-size="13" lengthAdjust="spacingAndGlyphs" textLength="36" x="133.3875" y="151.7774">many</text><!--link Privilege to Role--><path d="M109.215,186.9531 C116.543,186.9531 123.872,186.9531 131.2,186.9531 " fill="none" id="Privilege-Role" style="stroke: #A80036; stroke-width: 1.0;"/><polygon fill="#A80036" points="144.391,186.9531,138.391,182.9531,132.391,186.9531,138.391,190.9531,144.391,186.9531" style="stroke: #A80036; stroke-width: 1.0;"/><text fill="#000000" font-family="sans-serif" font-size="13" lengthAdjust="spacingAndGlyphs" textLength="36" x="117.033" y="179.8431">many</text><text fill="#000000" font-family="sans-serif" font-size="13" lengthAdjust="spacingAndGlyphs" textLength="8" x="128.6189" y="200.7698">1</text><!--
@startuml
title Auth - Class Diagram


class UserId

class User {
    +String username
    +String password
}

class Role

class Privilege



UserId <- User
User "1" *-down- "many" Role
Role "1" *-left- "many" Privilege
@enduml

PlantUML version 1.2018.12(Sun Oct 21 10:15:15 UTC 2018)
(GPL source distribution)
Java Runtime: Java(TM) SE Runtime Environment
JVM: Java HotSpot(TM) 64-Bit Server VM
Java Version: 1.7.0_25-b15
Operating System: Linux
Default Encoding: UTF-8
Language: en
Country: US
--></g></svg>