<?xml version="1.0" encoding="UTF-8" standalone="no"?><svg xmlns="http://www.w3.org/2000/svg" xmlns:xlink="http://www.w3.org/1999/xlink" contentScriptType="application/ecmascript" contentStyleType="text/css" height="329px" preserveAspectRatio="none" style="width:288px;height:329px;" version="1.1" viewBox="0 0 288 329" width="288px" zoomAndPan="magnify"><defs><filter height="300%" id="f8ykgiwwyr4kt" width="300%" x="-1" y="-1"><feGaussianBlur result="blurOut" stdDeviation="2.0"/><feColorMatrix in="blurOut" result="blurOut2" type="matrix" values="0 0 0 0 0 0 0 0 0 0 0 0 0 0 0 0 0 0 .4 0"/><feOffset dx="4.0" dy="4.0" in="blurOut2" result="blurOut3"/><feBlend in="SourceGraphic" in2="blurOut3" mode="normal"/></filter></defs><g><text fill="#000000" font-family="sans-serif" font-size="18" lengthAdjust="spacingAndGlyphs" textLength="211" x="42" y="16.708">Catalog - Class Diagram</text><!--class CatalogItem--><rect fill="#FEFECE" filter="url(#f8ykgiwwyr4kt)" height="60.8047" id="CatalogItem" style="stroke: #A80036; stroke-width: 1.5;" width="107" x="155.5" y="143.4531"/><ellipse cx="170.5" cy="159.4531" fill="#ADD1B2" rx="11" ry="11" style="stroke: #A80036; stroke-width: 1.0;"/><path d="M172.8438,155.125 L173.0156,155.2031 C173.2344,154.8906 173.4375,154.7969 173.7344,154.7969 C174.0313,154.7969 174.3125,154.9375 174.4688,155.2031 C174.5625,155.3594 174.5781,155.4844 174.5781,155.9219 L174.5781,157.3438 C174.5781,157.7656 174.5469,157.9531 174.4375,158.1094 C174.2656,158.3281 174,158.4688 173.7344,158.4688 C173.5156,158.4688 173.2813,158.3594 173.1406,158.2188 C173,158.0938 172.9688,157.9688 172.9063,157.5625 C172.8125,157.1563 172.6406,156.9375 172.1563,156.6563 C171.6875,156.4063 171.0781,156.25 170.5,156.25 C168.7656,156.25 167.5156,157.5625 167.5156,159.3438 L167.5156,160.4375 C167.5156,162.1406 168.8125,163.2344 170.8594,163.2344 C171.625,163.2344 172.3125,163.1094 172.7344,162.8438 C172.9219,162.75 172.9219,162.75 173.375,162.2656 C173.5625,162.0781 173.7656,162 173.9844,162 C174.4531,162 174.8438,162.3906 174.8438,162.8438 C174.8438,163.2344 174.5156,163.6875 173.9375,164.0938 C173.1875,164.6406 172.0313,164.9375 170.8125,164.9375 C167.9219,164.9375 165.8125,163.0469 165.8125,160.4688 L165.8125,159.3438 C165.8125,156.625 167.8125,154.5469 170.4375,154.5469 C171.3125,154.5469 171.9063,154.6875 172.8438,155.125 Z "/><text fill="#000000" font-family="sans-serif" font-size="12" lengthAdjust="spacingAndGlyphs" textLength="75" x="184.5" y="163.6074">CatalogItem</text><line style="stroke: #A80036; stroke-width: 1.5;" x1="156.5" x2="261.5" y1="175.4531" y2="175.4531"/><ellipse cx="166.5" cy="187.3555" fill="none" rx="3" ry="3" style="stroke: #038048; stroke-width: 1.0;"/><text fill="#000000" font-family="sans-serif" font-size="11" lengthAdjust="spacingAndGlyphs" textLength="70" x="175.5" y="189.6636">String name</text><line style="stroke: #A80036; stroke-width: 1.5;" x1="156.5" x2="261.5" y1="196.2578" y2="196.2578"/><!--class CatalogItemId--><rect fill="#FEFECE" filter="url(#f8ykgiwwyr4kt)" height="48" id="CatalogItemId" style="stroke: #A80036; stroke-width: 1.5;" width="118" x="150" y="270.9531"/><ellipse cx="165" cy="286.9531" fill="#ADD1B2" rx="11" ry="11" style="stroke: #A80036; stroke-width: 1.0;"/><path d="M167.3438,282.625 L167.5156,282.7031 C167.7344,282.3906 167.9375,282.2969 168.2344,282.2969 C168.5313,282.2969 168.8125,282.4375 168.9688,282.7031 C169.0625,282.8594 169.0781,282.9844 169.0781,283.4219 L169.0781,284.8438 C169.0781,285.2656 169.0469,285.4531 168.9375,285.6094 C168.7656,285.8281 168.5,285.9688 168.2344,285.9688 C168.0156,285.9688 167.7813,285.8594 167.6406,285.7188 C167.5,285.5938 167.4688,285.4688 167.4063,285.0625 C167.3125,284.6563 167.1406,284.4375 166.6563,284.1563 C166.1875,283.9063 165.5781,283.75 165,283.75 C163.2656,283.75 162.0156,285.0625 162.0156,286.8438 L162.0156,287.9375 C162.0156,289.6406 163.3125,290.7344 165.3594,290.7344 C166.125,290.7344 166.8125,290.6094 167.2344,290.3438 C167.4219,290.25 167.4219,290.25 167.875,289.7656 C168.0625,289.5781 168.2656,289.5 168.4844,289.5 C168.9531,289.5 169.3438,289.8906 169.3438,290.3438 C169.3438,290.7344 169.0156,291.1875 168.4375,291.5938 C167.6875,292.1406 166.5313,292.4375 165.3125,292.4375 C162.4219,292.4375 160.3125,290.5469 160.3125,287.9688 L160.3125,286.8438 C160.3125,284.125 162.3125,282.0469 164.9375,282.0469 C165.8125,282.0469 166.4063,282.1875 167.3438,282.625 Z "/><text fill="#000000" font-family="sans-serif" font-size="12" lengthAdjust="spacingAndGlyphs" textLength="86" x="179" y="291.1074">CatalogItemId</text><line style="stroke: #A80036; stroke-width: 1.5;" x1="151" x2="267" y1="302.9531" y2="302.9531"/><line style="stroke: #A80036; stroke-width: 1.5;" x1="151" x2="267" y1="310.9531" y2="310.9531"/><!--class CatalogItemType--><rect fill="#FEFECE" filter="url(#f8ykgiwwyr4kt)" height="48" id="CatalogItemType" style="stroke: #A80036; stroke-width: 1.5;" width="136" x="141" y="28.9531"/><ellipse cx="156" cy="44.9531" fill="#ADD1B2" rx="11" ry="11" style="stroke: #A80036; stroke-width: 1.0;"/><path d="M158.3438,40.625 L158.5156,40.7031 C158.7344,40.3906 158.9375,40.2969 159.2344,40.2969 C159.5313,40.2969 159.8125,40.4375 159.9688,40.7031 C160.0625,40.8594 160.0781,40.9844 160.0781,41.4219 L160.0781,42.8438 C160.0781,43.2656 160.0469,43.4531 159.9375,43.6094 C159.7656,43.8281 159.5,43.9688 159.2344,43.9688 C159.0156,43.9688 158.7813,43.8594 158.6406,43.7188 C158.5,43.5938 158.4688,43.4688 158.4063,43.0625 C158.3125,42.6563 158.1406,42.4375 157.6563,42.1563 C157.1875,41.9063 156.5781,41.75 156,41.75 C154.2656,41.75 153.0156,43.0625 153.0156,44.8438 L153.0156,45.9375 C153.0156,47.6406 154.3125,48.7344 156.3594,48.7344 C157.125,48.7344 157.8125,48.6094 158.2344,48.3438 C158.4219,48.25 158.4219,48.25 158.875,47.7656 C159.0625,47.5781 159.2656,47.5 159.4844,47.5 C159.9531,47.5 160.3438,47.8906 160.3438,48.3438 C160.3438,48.7344 160.0156,49.1875 159.4375,49.5938 C158.6875,50.1406 157.5313,50.4375 156.3125,50.4375 C153.4219,50.4375 151.3125,48.5469 151.3125,45.9688 L151.3125,44.8438 C151.3125,42.125 153.3125,40.0469 155.9375,40.0469 C156.8125,40.0469 157.4063,40.1875 158.3438,40.625 Z "/><text fill="#000000" font-family="sans-serif" font-size="12" lengthAdjust="spacingAndGlyphs" textLength="104" x="170" y="49.1074">CatalogItemType</text><line style="stroke: #A80036; stroke-width: 1.5;" x1="142" x2="276" y1="60.9531" y2="60.9531"/><line style="stroke: #A80036; stroke-width: 1.5;" x1="142" x2="276" y1="68.9531" y2="68.9531"/><!--class Price--><rect fill="#FEFECE" filter="url(#f8ykgiwwyr4kt)" height="73.6094" id="Price" style="stroke: #A80036; stroke-width: 1.5;" width="114" x="6" y="136.9531"/><ellipse cx="43.95" cy="152.9531" fill="#ADD1B2" rx="11" ry="11" style="stroke: #A80036; stroke-width: 1.0;"/><path d="M46.2938,148.625 L46.4656,148.7031 C46.6844,148.3906 46.8875,148.2969 47.1844,148.2969 C47.4813,148.2969 47.7625,148.4375 47.9188,148.7031 C48.0125,148.8594 48.0281,148.9844 48.0281,149.4219 L48.0281,150.8438 C48.0281,151.2656 47.9969,151.4531 47.8875,151.6094 C47.7156,151.8281 47.45,151.9688 47.1844,151.9688 C46.9656,151.9688 46.7313,151.8594 46.5906,151.7188 C46.45,151.5938 46.4188,151.4688 46.3563,151.0625 C46.2625,150.6563 46.0906,150.4375 45.6063,150.1563 C45.1375,149.9063 44.5281,149.75 43.95,149.75 C42.2156,149.75 40.9656,151.0625 40.9656,152.8438 L40.9656,153.9375 C40.9656,155.6406 42.2625,156.7344 44.3094,156.7344 C45.075,156.7344 45.7625,156.6094 46.1844,156.3438 C46.3719,156.25 46.3719,156.25 46.825,155.7656 C47.0125,155.5781 47.2156,155.5 47.4344,155.5 C47.9031,155.5 48.2938,155.8906 48.2938,156.3438 C48.2938,156.7344 47.9656,157.1875 47.3875,157.5938 C46.6375,158.1406 45.4813,158.4375 44.2625,158.4375 C41.3719,158.4375 39.2625,156.5469 39.2625,153.9688 L39.2625,152.8438 C39.2625,150.125 41.2625,148.0469 43.8875,148.0469 C44.7625,148.0469 45.3563,148.1875 46.2938,148.625 Z "/><text fill="#000000" font-family="sans-serif" font-size="12" lengthAdjust="spacingAndGlyphs" textLength="31" x="63.05" y="157.1074">Price</text><line style="stroke: #A80036; stroke-width: 1.5;" x1="7" x2="119" y1="168.9531" y2="168.9531"/><ellipse cx="17" cy="180.8555" fill="none" rx="3" ry="3" style="stroke: #038048; stroke-width: 1.0;"/><text fill="#000000" font-family="sans-serif" font-size="11" lengthAdjust="spacingAndGlyphs" textLength="88" x="26" y="183.1636">double perHour</text><ellipse cx="17" cy="193.6602" fill="none" rx="3" ry="3" style="stroke: #038048; stroke-width: 1.0;"/><text fill="#000000" font-family="sans-serif" font-size="11" lengthAdjust="spacingAndGlyphs" textLength="82" x="26" y="195.9683">double perDay</text><line style="stroke: #A80036; stroke-width: 1.5;" x1="7" x2="119" y1="202.5625" y2="202.5625"/><!--link CatalogItem to CatalogItemId--><path d="M209,204.6751 C209,223.4267 209,247.4952 209,265.9158 " fill="none" id="CatalogItem-CatalogItemId" style="stroke: #A80036; stroke-width: 1.0;"/><polygon fill="#A80036" points="209,270.9525,213,261.9525,209,265.9525,205,261.9525,209,270.9525" style="stroke: #A80036; stroke-width: 1.0;"/><!--link CatalogItemType to CatalogItem--><path d="M209,82.2291 C209,100.6891 209,124.7451 209,143.4471 " fill="none" id="CatalogItemType-CatalogItem" style="stroke: #A80036; stroke-width: 1.0;"/><polygon fill="#A80036" points="209,77.1801,205,86.1801,209,82.1801,213,86.1801,209,77.1801" style="stroke: #A80036; stroke-width: 1.0;"/><!--link Price to CatalogItem--><path d="M125.293,173.9531 C135.355,173.9531 145.418,173.9531 155.48,173.9531 " fill="none" id="Price-CatalogItem" style="stroke: #A80036; stroke-width: 1.0;"/><polygon fill="#A80036" points="120.031,173.9531,129.031,177.9531,125.031,173.9531,129.031,169.9531,120.031,173.9531" style="stroke: #A80036; stroke-width: 1.0;"/><!--
@startuml
title Catalog - Class Diagram

class CatalogItem {
    +String name
}

class CatalogItemId

class CatalogItemType

class Price {
    +double perHour
    +double perDay
}


CatalogItemId <-down- CatalogItem
CatalogItemType <-up- CatalogItem
Price <- CatalogItem
@enduml

PlantUML version 1.2018.12(Sun Oct 21 10:15:15 UTC 2018)
(GPL source distribution)
Java Runtime: Java(TM) SE Runtime Environment
JVM: Java HotSpot(TM) 64-Bit Server VM
Java Version: 1.7.0_25-b15
Operating System: Linux
Default Encoding: UTF-8
Language: en
Country: US
--></g></svg>