<?xml version="1.0" encoding="UTF-8" standalone="no"?><svg xmlns="http://www.w3.org/2000/svg" xmlns:xlink="http://www.w3.org/1999/xlink" contentScriptType="application/ecmascript" contentStyleType="text/css" height="263px" preserveAspectRatio="none" style="width:245px;height:263px;" version="1.1" viewBox="0 0 245 263" width="245px" zoomAndPan="magnify"><defs><filter height="300%" id="f4ogs8d5uk070" width="300%" x="-1" y="-1"><feGaussianBlur result="blurOut" stdDeviation="2.0"/><feColorMatrix in="blurOut" result="blurOut2" type="matrix" values="0 0 0 0 0 0 0 0 0 0 0 0 0 0 0 0 0 0 .4 0"/><feOffset dx="4.0" dy="4.0" in="blurOut2" result="blurOut3"/><feBlend in="SourceGraphic" in2="blurOut3" mode="normal"/></filter></defs><g><text fill="#000000" font-family="sans-serif" font-size="18" lengthAdjust="spacingAndGlyphs" textLength="231" x="2" y="16.708">Inventory - Class Diagram</text><!--class Inventory--><rect fill="#FEFECE" filter="url(#f4ogs8d5uk070)" height="48" id="Inventory" style="stroke: #A80036; stroke-width: 1.5;" width="89" x="67" y="204.9531"/><ellipse cx="82" cy="220.9531" fill="#ADD1B2" rx="11" ry="11" style="stroke: #A80036; stroke-width: 1.0;"/><path d="M84.3438,216.625 L84.5156,216.7031 C84.7344,216.3906 84.9375,216.2969 85.2344,216.2969 C85.5313,216.2969 85.8125,216.4375 85.9688,216.7031 C86.0625,216.8594 86.0781,216.9844 86.0781,217.4219 L86.0781,218.8438 C86.0781,219.2656 86.0469,219.4531 85.9375,219.6094 C85.7656,219.8281 85.5,219.9688 85.2344,219.9688 C85.0156,219.9688 84.7813,219.8594 84.6406,219.7188 C84.5,219.5938 84.4688,219.4688 84.4063,219.0625 C84.3125,218.6563 84.1406,218.4375 83.6563,218.1563 C83.1875,217.9063 82.5781,217.75 82,217.75 C80.2656,217.75 79.0156,219.0625 79.0156,220.8438 L79.0156,221.9375 C79.0156,223.6406 80.3125,224.7344 82.3594,224.7344 C83.125,224.7344 83.8125,224.6094 84.2344,224.3438 C84.4219,224.25 84.4219,224.25 84.875,223.7656 C85.0625,223.5781 85.2656,223.5 85.4844,223.5 C85.9531,223.5 86.3438,223.8906 86.3438,224.3438 C86.3438,224.7344 86.0156,225.1875 85.4375,225.5938 C84.6875,226.1406 83.5313,226.4375 82.3125,226.4375 C79.4219,226.4375 77.3125,224.5469 77.3125,221.9688 L77.3125,220.8438 C77.3125,218.125 79.3125,216.0469 81.9375,216.0469 C82.8125,216.0469 83.4063,216.1875 84.3438,216.625 Z "/><text fill="#000000" font-family="sans-serif" font-size="12" lengthAdjust="spacingAndGlyphs" textLength="57" x="96" y="225.1074">Inventory</text><line style="stroke: #A80036; stroke-width: 1.5;" x1="68" x2="155" y1="236.9531" y2="236.9531"/><line style="stroke: #A80036; stroke-width: 1.5;" x1="68" x2="155" y1="244.9531" y2="244.9531"/><!--class InventoryRecord--><rect fill="#FEFECE" filter="url(#f4ogs8d5uk070)" height="99.2188" id="InventoryRecord" style="stroke: #A80036; stroke-width: 1.5;" width="184" x="19.5" y="28.9531"/><ellipse cx="57.45" cy="44.9531" fill="#ADD1B2" rx="11" ry="11" style="stroke: #A80036; stroke-width: 1.0;"/><path d="M59.7938,40.625 L59.9656,40.7031 C60.1844,40.3906 60.3875,40.2969 60.6844,40.2969 C60.9813,40.2969 61.2625,40.4375 61.4188,40.7031 C61.5125,40.8594 61.5281,40.9844 61.5281,41.4219 L61.5281,42.8438 C61.5281,43.2656 61.4969,43.4531 61.3875,43.6094 C61.2156,43.8281 60.95,43.9688 60.6844,43.9688 C60.4656,43.9688 60.2313,43.8594 60.0906,43.7188 C59.95,43.5938 59.9188,43.4688 59.8563,43.0625 C59.7625,42.6563 59.5906,42.4375 59.1063,42.1563 C58.6375,41.9063 58.0281,41.75 57.45,41.75 C55.7156,41.75 54.4656,43.0625 54.4656,44.8438 L54.4656,45.9375 C54.4656,47.6406 55.7625,48.7344 57.8094,48.7344 C58.575,48.7344 59.2625,48.6094 59.6844,48.3438 C59.8719,48.25 59.8719,48.25 60.325,47.7656 C60.5125,47.5781 60.7156,47.5 60.9344,47.5 C61.4031,47.5 61.7938,47.8906 61.7938,48.3438 C61.7938,48.7344 61.4656,49.1875 60.8875,49.5938 C60.1375,50.1406 58.9813,50.4375 57.7625,50.4375 C54.8719,50.4375 52.7625,48.5469 52.7625,45.9688 L52.7625,44.8438 C52.7625,42.125 54.7625,40.0469 57.3875,40.0469 C58.2625,40.0469 58.8563,40.1875 59.7938,40.625 Z "/><text fill="#000000" font-family="sans-serif" font-size="12" lengthAdjust="spacingAndGlyphs" textLength="101" x="76.55" y="49.1074">InventoryRecord</text><line style="stroke: #A80036; stroke-width: 1.5;" x1="20.5" x2="202.5" y1="60.9531" y2="60.9531"/><ellipse cx="30.5" cy="72.8555" fill="none" rx="3" ry="3" style="stroke: #038048; stroke-width: 1.0;"/><text fill="#000000" font-family="sans-serif" font-size="11" lengthAdjust="spacingAndGlyphs" textLength="158" x="39.5" y="75.1636">CatalogItemId catalogItemId</text><ellipse cx="30.5" cy="85.6602" fill="none" rx="3" ry="3" style="stroke: #038048; stroke-width: 1.0;"/><text fill="#000000" font-family="sans-serif" font-size="11" lengthAdjust="spacingAndGlyphs" textLength="62" x="39.5" y="87.9683">int stocked</text><ellipse cx="30.5" cy="98.4648" fill="none" rx="3" ry="3" style="stroke: #038048; stroke-width: 1.0;"/><text fill="#000000" font-family="sans-serif" font-size="11" lengthAdjust="spacingAndGlyphs" textLength="69" x="39.5" y="100.7729">int reserved</text><ellipse cx="30.5" cy="111.2695" fill="none" rx="3" ry="3" style="stroke: #038048; stroke-width: 1.0;"/><text fill="#000000" font-family="sans-serif" font-size="11" lengthAdjust="spacingAndGlyphs" textLength="69" x="39.5" y="113.5776">int allocated</text><line style="stroke: #A80036; stroke-width: 1.5;" x1="20.5" x2="202.5" y1="120.1719" y2="120.1719"/><!--link InventoryRecord to Inventory--><path d="M111.5,128.0771 C111.5,148.7701 111.5,172.4885 111.5,191.6181 " fill="none" id="InventoryRecord-Inventory" style="stroke: #A80036; stroke-width: 1.0;"/><polygon fill="#A80036" points="111.5,204.6275,115.5,198.6275,111.5,192.6275,107.5,198.6275,111.5,204.6275" style="stroke: #A80036; stroke-width: 1.0;"/><text fill="#000000" font-family="sans-serif" font-size="13" lengthAdjust="spacingAndGlyphs" textLength="80" x="112.5" y="171.02">Composition</text><text fill="#000000" font-family="sans-serif" font-size="13" lengthAdjust="spacingAndGlyphs" textLength="36" x="72.9688" y="148.171">many</text><text fill="#000000" font-family="sans-serif" font-size="13" lengthAdjust="spacingAndGlyphs" textLength="8" x="102.525" y="193.9531">1</text><!--
@startuml
title Inventory - Class Diagram


class Inventory 

class InventoryRecord {
    +CatalogItemId catalogItemId
    +int stocked
    +int reserved
    +int allocated
}


Inventory "1" *-up- "many" InventoryRecord: Composition
@enduml

PlantUML version 1.2018.12(Sun Oct 21 10:15:15 UTC 2018)
(GPL source distribution)
Java Runtime: Java(TM) SE Runtime Environment
JVM: Java HotSpot(TM) 64-Bit Server VM
Java Version: 1.7.0_25-b15
Operating System: Linux
Default Encoding: UTF-8
Language: en
Country: US
--></g></svg>