<?xml version="1.0" encoding="UTF-8" standalone="no"?><svg xmlns="http://www.w3.org/2000/svg" xmlns:xlink="http://www.w3.org/1999/xlink" contentScriptType="application/ecmascript" contentStyleType="text/css" height="276px" preserveAspectRatio="none" style="width:396px;height:276px;" version="1.1" viewBox="0 0 396 276" width="396px" zoomAndPan="magnify"><defs><filter height="300%" id="f137d8ep27ckhf" width="300%" x="-1" y="-1"><feGaussianBlur result="blurOut" stdDeviation="2.0"/><feColorMatrix in="blurOut" result="blurOut2" type="matrix" values="0 0 0 0 0 0 0 0 0 0 0 0 0 0 0 0 0 0 .4 0"/><feOffset dx="4.0" dy="4.0" in="blurOut2" result="blurOut3"/><feBlend in="SourceGraphic" in2="blurOut3" mode="normal"/></filter></defs><g><text fill="#000000" font-family="sans-serif" font-size="18" lengthAdjust="spacingAndGlyphs" textLength="275" x="64" y="16.708">Virtual Hosting - Class Diagram</text><!--class Customer--><rect fill="#FEFECE" filter="url(#f137d8ep27ckhf)" height="86.4141" id="Customer" style="stroke: #A80036; stroke-width: 1.5;" width="160" x="6" y="166.9531"/><ellipse cx="51.75" cy="182.9531" fill="#ADD1B2" rx="11" ry="11" style="stroke: #A80036; stroke-width: 1.0;"/><path d="M54.0938,178.625 L54.2656,178.7031 C54.4844,178.3906 54.6875,178.2969 54.9844,178.2969 C55.2813,178.2969 55.5625,178.4375 55.7188,178.7031 C55.8125,178.8594 55.8281,178.9844 55.8281,179.4219 L55.8281,180.8438 C55.8281,181.2656 55.7969,181.4531 55.6875,181.6094 C55.5156,181.8281 55.25,181.9688 54.9844,181.9688 C54.7656,181.9688 54.5313,181.8594 54.3906,181.7188 C54.25,181.5938 54.2188,181.4688 54.1563,181.0625 C54.0625,180.6563 53.8906,180.4375 53.4063,180.1563 C52.9375,179.9063 52.3281,179.75 51.75,179.75 C50.0156,179.75 48.7656,181.0625 48.7656,182.8438 L48.7656,183.9375 C48.7656,185.6406 50.0625,186.7344 52.1094,186.7344 C52.875,186.7344 53.5625,186.6094 53.9844,186.3438 C54.1719,186.25 54.1719,186.25 54.625,185.7656 C54.8125,185.5781 55.0156,185.5 55.2344,185.5 C55.7031,185.5 56.0938,185.8906 56.0938,186.3438 C56.0938,186.7344 55.7656,187.1875 55.1875,187.5938 C54.4375,188.1406 53.2813,188.4375 52.0625,188.4375 C49.1719,188.4375 47.0625,186.5469 47.0625,183.9688 L47.0625,182.8438 C47.0625,180.125 49.0625,178.0469 51.6875,178.0469 C52.5625,178.0469 53.1563,178.1875 54.0938,178.625 Z "/><text fill="#000000" font-family="sans-serif" font-size="12" lengthAdjust="spacingAndGlyphs" textLength="60" x="72.25" y="187.1074">Customer</text><line style="stroke: #A80036; stroke-width: 1.5;" x1="7" x2="165" y1="198.9531" y2="198.9531"/><ellipse cx="17" cy="210.8555" fill="none" rx="3" ry="3" style="stroke: #038048; stroke-width: 1.0;"/><text fill="#000000" font-family="sans-serif" font-size="11" lengthAdjust="spacingAndGlyphs" textLength="134" x="26" y="213.1636">CustomerId customerId</text><ellipse cx="17" cy="223.6602" fill="none" rx="3" ry="3" style="stroke: #038048; stroke-width: 1.0;"/><text fill="#000000" font-family="sans-serif" font-size="11" lengthAdjust="spacingAndGlyphs" textLength="70" x="26" y="225.9683">String name</text><ellipse cx="17" cy="236.4648" fill="none" rx="3" ry="3" style="stroke: #038048; stroke-width: 1.0;"/><text fill="#000000" font-family="sans-serif" font-size="11" lengthAdjust="spacingAndGlyphs" textLength="111" x="26" y="238.7729">BigDecimal balance</text><line style="stroke: #A80036; stroke-width: 1.5;" x1="7" x2="165" y1="245.3672" y2="245.3672"/><!--class Order--><rect fill="#FEFECE" filter="url(#f137d8ep27ckhf)" height="112.0234" id="Order" style="stroke: #A80036; stroke-width: 1.5;" width="184" x="201" y="153.9531"/><ellipse cx="271.25" cy="169.9531" fill="#ADD1B2" rx="11" ry="11" style="stroke: #A80036; stroke-width: 1.0;"/><path d="M273.5938,165.625 L273.7656,165.7031 C273.9844,165.3906 274.1875,165.2969 274.4844,165.2969 C274.7813,165.2969 275.0625,165.4375 275.2188,165.7031 C275.3125,165.8594 275.3281,165.9844 275.3281,166.4219 L275.3281,167.8438 C275.3281,168.2656 275.2969,168.4531 275.1875,168.6094 C275.0156,168.8281 274.75,168.9688 274.4844,168.9688 C274.2656,168.9688 274.0313,168.8594 273.8906,168.7188 C273.75,168.5938 273.7188,168.4688 273.6563,168.0625 C273.5625,167.6563 273.3906,167.4375 272.9063,167.1563 C272.4375,166.9063 271.8281,166.75 271.25,166.75 C269.5156,166.75 268.2656,168.0625 268.2656,169.8438 L268.2656,170.9375 C268.2656,172.6406 269.5625,173.7344 271.6094,173.7344 C272.375,173.7344 273.0625,173.6094 273.4844,173.3438 C273.6719,173.25 273.6719,173.25 274.125,172.7656 C274.3125,172.5781 274.5156,172.5 274.7344,172.5 C275.2031,172.5 275.5938,172.8906 275.5938,173.3438 C275.5938,173.7344 275.2656,174.1875 274.6875,174.5938 C273.9375,175.1406 272.7813,175.4375 271.5625,175.4375 C268.6719,175.4375 266.5625,173.5469 266.5625,170.9688 L266.5625,169.8438 C266.5625,167.125 268.5625,165.0469 271.1875,165.0469 C272.0625,165.0469 272.6563,165.1875 273.5938,165.625 Z "/><text fill="#000000" font-family="sans-serif" font-size="12" lengthAdjust="spacingAndGlyphs" textLength="35" x="291.75" y="174.1074">Order</text><line style="stroke: #A80036; stroke-width: 1.5;" x1="202" x2="384" y1="185.9531" y2="185.9531"/><ellipse cx="212" cy="197.8555" fill="none" rx="3" ry="3" style="stroke: #038048; stroke-width: 1.0;"/><text fill="#000000" font-family="sans-serif" font-size="11" lengthAdjust="spacingAndGlyphs" textLength="88" x="221" y="200.1636">OrderId orderId</text><ellipse cx="212" cy="210.6602" fill="none" rx="3" ry="3" style="stroke: #038048; stroke-width: 1.0;"/><text fill="#000000" font-family="sans-serif" font-size="11" lengthAdjust="spacingAndGlyphs" textLength="134" x="221" y="212.9683">CustomerId customerId</text><ellipse cx="212" cy="223.4648" fill="none" rx="3" ry="3" style="stroke: #038048; stroke-width: 1.0;"/><text fill="#000000" font-family="sans-serif" font-size="11" lengthAdjust="spacingAndGlyphs" textLength="158" x="221" y="225.7729">CatalogItemId catalogItemId</text><ellipse cx="212" cy="236.2695" fill="none" rx="3" ry="3" style="stroke: #038048; stroke-width: 1.0;"/><text fill="#000000" font-family="sans-serif" font-size="11" lengthAdjust="spacingAndGlyphs" textLength="63" x="221" y="238.5776">int quantity</text><ellipse cx="212" cy="249.0742" fill="none" rx="3" ry="3" style="stroke: #038048; stroke-width: 1.0;"/><text fill="#000000" font-family="sans-serif" font-size="11" lengthAdjust="spacingAndGlyphs" textLength="121" x="221" y="251.3823">String tenementCode</text><line style="stroke: #A80036; stroke-width: 1.5;" x1="202" x2="384" y1="257.9766" y2="257.9766"/><!--class OrderId--><rect fill="#FEFECE" filter="url(#f137d8ep27ckhf)" height="48" id="OrderId" style="stroke: #A80036; stroke-width: 1.5;" width="78" x="254" y="28.9531"/><ellipse cx="269" cy="44.9531" fill="#ADD1B2" rx="11" ry="11" style="stroke: #A80036; stroke-width: 1.0;"/><path d="M271.3438,40.625 L271.5156,40.7031 C271.7344,40.3906 271.9375,40.2969 272.2344,40.2969 C272.5313,40.2969 272.8125,40.4375 272.9688,40.7031 C273.0625,40.8594 273.0781,40.9844 273.0781,41.4219 L273.0781,42.8438 C273.0781,43.2656 273.0469,43.4531 272.9375,43.6094 C272.7656,43.8281 272.5,43.9688 272.2344,43.9688 C272.0156,43.9688 271.7813,43.8594 271.6406,43.7188 C271.5,43.5938 271.4688,43.4688 271.4063,43.0625 C271.3125,42.6563 271.1406,42.4375 270.6563,42.1563 C270.1875,41.9063 269.5781,41.75 269,41.75 C267.2656,41.75 266.0156,43.0625 266.0156,44.8438 L266.0156,45.9375 C266.0156,47.6406 267.3125,48.7344 269.3594,48.7344 C270.125,48.7344 270.8125,48.6094 271.2344,48.3438 C271.4219,48.25 271.4219,48.25 271.875,47.7656 C272.0625,47.5781 272.2656,47.5 272.4844,47.5 C272.9531,47.5 273.3438,47.8906 273.3438,48.3438 C273.3438,48.7344 273.0156,49.1875 272.4375,49.5938 C271.6875,50.1406 270.5313,50.4375 269.3125,50.4375 C266.4219,50.4375 264.3125,48.5469 264.3125,45.9688 L264.3125,44.8438 C264.3125,42.125 266.3125,40.0469 268.9375,40.0469 C269.8125,40.0469 270.4063,40.1875 271.3438,40.625 Z "/><text fill="#000000" font-family="sans-serif" font-size="12" lengthAdjust="spacingAndGlyphs" textLength="46" x="283" y="49.1074">OrderId</text><line style="stroke: #A80036; stroke-width: 1.5;" x1="255" x2="331" y1="60.9531" y2="60.9531"/><line style="stroke: #A80036; stroke-width: 1.5;" x1="255" x2="331" y1="68.9531" y2="68.9531"/><!--class CustomerId--><rect fill="#FEFECE" filter="url(#f137d8ep27ckhf)" height="48" id="CustomerId" style="stroke: #A80036; stroke-width: 1.5;" width="103" x="74.5" y="28.9531"/><ellipse cx="89.5" cy="44.9531" fill="#ADD1B2" rx="11" ry="11" style="stroke: #A80036; stroke-width: 1.0;"/><path d="M91.8438,40.625 L92.0156,40.7031 C92.2344,40.3906 92.4375,40.2969 92.7344,40.2969 C93.0313,40.2969 93.3125,40.4375 93.4688,40.7031 C93.5625,40.8594 93.5781,40.9844 93.5781,41.4219 L93.5781,42.8438 C93.5781,43.2656 93.5469,43.4531 93.4375,43.6094 C93.2656,43.8281 93,43.9688 92.7344,43.9688 C92.5156,43.9688 92.2813,43.8594 92.1406,43.7188 C92,43.5938 91.9688,43.4688 91.9063,43.0625 C91.8125,42.6563 91.6406,42.4375 91.1563,42.1563 C90.6875,41.9063 90.0781,41.75 89.5,41.75 C87.7656,41.75 86.5156,43.0625 86.5156,44.8438 L86.5156,45.9375 C86.5156,47.6406 87.8125,48.7344 89.8594,48.7344 C90.625,48.7344 91.3125,48.6094 91.7344,48.3438 C91.9219,48.25 91.9219,48.25 92.375,47.7656 C92.5625,47.5781 92.7656,47.5 92.9844,47.5 C93.4531,47.5 93.8438,47.8906 93.8438,48.3438 C93.8438,48.7344 93.5156,49.1875 92.9375,49.5938 C92.1875,50.1406 91.0313,50.4375 89.8125,50.4375 C86.9219,50.4375 84.8125,48.5469 84.8125,45.9688 L84.8125,44.8438 C84.8125,42.125 86.8125,40.0469 89.4375,40.0469 C90.3125,40.0469 90.9063,40.1875 91.8438,40.625 Z "/><text fill="#000000" font-family="sans-serif" font-size="12" lengthAdjust="spacingAndGlyphs" textLength="71" x="103.5" y="49.1074">CustomerId</text><line style="stroke: #A80036; stroke-width: 1.5;" x1="75.5" x2="176.5" y1="60.9531" y2="60.9531"/><line style="stroke: #A80036; stroke-width: 1.5;" x1="75.5" x2="176.5" y1="68.9531" y2="68.9531"/><!--link CustomerId to Customer--><path d="M114.955,96.7521 C109.315,118.6091 102.4767,145.1061 96.8625,166.8609 " fill="none" id="CustomerId-Customer" style="stroke: #A80036; stroke-width: 1.0;"/><polygon fill="none" points="108.236,94.7741,120.012,77.1581,121.792,98.2731,108.236,94.7741" style="stroke: #A80036; stroke-width: 1.0;"/><text fill="#000000" font-family="sans-serif" font-size="13" lengthAdjust="spacingAndGlyphs" textLength="32" x="113" y="120.02">Uses</text><!--link CustomerId to Order--><path d="M165.746,90.8431 C185.985,109.6281 211.004,132.8491 233.487,153.7171 " fill="none" id="CustomerId-Order" style="stroke: #A80036; stroke-width: 1.0;"/><polygon fill="none" points="160.899,95.8941,151.002,77.1581,170.423,85.6331,160.899,95.8941" style="stroke: #A80036; stroke-width: 1.0;"/><text fill="#000000" font-family="sans-serif" font-size="13" lengthAdjust="spacingAndGlyphs" textLength="32" x="201" y="120.02">Uses</text><!--link OrderId to Order--><path d="M293,97.3891 C293,114.8601 293,135.2131 293,153.7171 " fill="none" id="OrderId-Order" style="stroke: #A80036; stroke-width: 1.0;"/><polygon fill="none" points="286,97.1581,293,77.1581,300,97.1581,286,97.1581" style="stroke: #A80036; stroke-width: 1.0;"/><text fill="#000000" font-family="sans-serif" font-size="13" lengthAdjust="spacingAndGlyphs" textLength="32" x="294" y="120.02">Uses</text><!--
@startuml
title Virtual Hosting - Class Diagram

class Customer {
  +CustomerId customerId
  +String name
  +BigDecimal balance
}

class Order {
    +OrderId orderId
    +CustomerId customerId
    +CatalogItemId catalogItemId
    +int quantity
    +String tenementCode
}

class OrderId
class CustomerId

CustomerId <|-down- Customer: Uses
CustomerId <|-down- Order: Uses
OrderId <|-down- Order: Uses
@enduml

PlantUML version 1.2018.12(Sun Oct 21 10:15:15 UTC 2018)
(GPL source distribution)
Java Runtime: Java(TM) SE Runtime Environment
JVM: Java HotSpot(TM) 64-Bit Server VM
Java Version: 1.7.0_25-b15
Operating System: Linux
Default Encoding: UTF-8
Language: en
Country: US
--></g></svg>