<?xml version="1.0" encoding="UTF-8" standalone="no"?><svg xmlns="http://www.w3.org/2000/svg" xmlns:xlink="http://www.w3.org/1999/xlink" contentScriptType="application/ecmascript" contentStyleType="text/css" height="238px" preserveAspectRatio="none" style="width:454px;height:238px;" version="1.1" viewBox="0 0 454 238" width="454px" zoomAndPan="magnify"><defs><filter height="300%" id="f1fglxbde389u6" width="300%" x="-1" y="-1"><feGaussianBlur result="blurOut" stdDeviation="2.0"/><feColorMatrix in="blurOut" result="blurOut2" type="matrix" values="0 0 0 0 0 0 0 0 0 0 0 0 0 0 0 0 0 0 .4 0"/><feOffset dx="4.0" dy="4.0" in="blurOut2" result="blurOut3"/><feBlend in="SourceGraphic" in2="blurOut3" mode="normal"/></filter></defs><g><text fill="#000000" font-family="sans-serif" font-size="18" lengthAdjust="spacingAndGlyphs" textLength="275" x="93.5" y="16.708">Virtual Hosting - Class Diagram</text><!--class Tenant--><rect fill="#FEFECE" filter="url(#f1fglxbde389u6)" height="73.6094" id="Tenant" style="stroke: #A80036; stroke-width: 1.5;" width="125" x="6" y="153.9531"/><ellipse cx="43.05" cy="169.9531" fill="#ADD1B2" rx="11" ry="11" style="stroke: #A80036; stroke-width: 1.0;"/><path d="M45.3938,165.625 L45.5656,165.7031 C45.7844,165.3906 45.9875,165.2969 46.2844,165.2969 C46.5813,165.2969 46.8625,165.4375 47.0188,165.7031 C47.1125,165.8594 47.1281,165.9844 47.1281,166.4219 L47.1281,167.8438 C47.1281,168.2656 47.0969,168.4531 46.9875,168.6094 C46.8156,168.8281 46.55,168.9688 46.2844,168.9688 C46.0656,168.9688 45.8313,168.8594 45.6906,168.7188 C45.55,168.5938 45.5188,168.4688 45.4563,168.0625 C45.3625,167.6563 45.1906,167.4375 44.7063,167.1563 C44.2375,166.9063 43.6281,166.75 43.05,166.75 C41.3156,166.75 40.0656,168.0625 40.0656,169.8438 L40.0656,170.9375 C40.0656,172.6406 41.3625,173.7344 43.4094,173.7344 C44.175,173.7344 44.8625,173.6094 45.2844,173.3438 C45.4719,173.25 45.4719,173.25 45.925,172.7656 C46.1125,172.5781 46.3156,172.5 46.5344,172.5 C47.0031,172.5 47.3938,172.8906 47.3938,173.3438 C47.3938,173.7344 47.0656,174.1875 46.4875,174.5938 C45.7375,175.1406 44.5813,175.4375 43.3625,175.4375 C40.4719,175.4375 38.3625,173.5469 38.3625,170.9688 L38.3625,169.8438 C38.3625,167.125 40.3625,165.0469 42.9875,165.0469 C43.8625,165.0469 44.4563,165.1875 45.3938,165.625 Z "/><text fill="#000000" font-family="sans-serif" font-size="12" lengthAdjust="spacingAndGlyphs" textLength="44" x="61.95" y="174.1074">Tenant</text><line style="stroke: #A80036; stroke-width: 1.5;" x1="7" x2="130" y1="185.9531" y2="185.9531"/><ellipse cx="17" cy="197.8555" fill="none" rx="3" ry="3" style="stroke: #038048; stroke-width: 1.0;"/><text fill="#000000" font-family="sans-serif" font-size="11" lengthAdjust="spacingAndGlyphs" textLength="99" x="26" y="200.1636">TenantId tenantId</text><ellipse cx="17" cy="210.6602" fill="none" rx="3" ry="3" style="stroke: #038048; stroke-width: 1.0;"/><text fill="#000000" font-family="sans-serif" font-size="11" lengthAdjust="spacingAndGlyphs" textLength="79" x="26" y="212.9683">String sshKey</text><line style="stroke: #A80036; stroke-width: 1.5;" x1="7" x2="130" y1="219.5625" y2="219.5625"/><!--class VmTenement--><rect fill="#FEFECE" filter="url(#f1fglxbde389u6)" height="48" id="VmTenement" style="stroke: #A80036; stroke-width: 1.5;" width="114" x="329.5" y="166.9531"/><ellipse cx="344.5" cy="182.9531" fill="#ADD1B2" rx="11" ry="11" style="stroke: #A80036; stroke-width: 1.0;"/><path d="M346.8438,178.625 L347.0156,178.7031 C347.2344,178.3906 347.4375,178.2969 347.7344,178.2969 C348.0313,178.2969 348.3125,178.4375 348.4688,178.7031 C348.5625,178.8594 348.5781,178.9844 348.5781,179.4219 L348.5781,180.8438 C348.5781,181.2656 348.5469,181.4531 348.4375,181.6094 C348.2656,181.8281 348,181.9688 347.7344,181.9688 C347.5156,181.9688 347.2813,181.8594 347.1406,181.7188 C347,181.5938 346.9688,181.4688 346.9063,181.0625 C346.8125,180.6563 346.6406,180.4375 346.1563,180.1563 C345.6875,179.9063 345.0781,179.75 344.5,179.75 C342.7656,179.75 341.5156,181.0625 341.5156,182.8438 L341.5156,183.9375 C341.5156,185.6406 342.8125,186.7344 344.8594,186.7344 C345.625,186.7344 346.3125,186.6094 346.7344,186.3438 C346.9219,186.25 346.9219,186.25 347.375,185.7656 C347.5625,185.5781 347.7656,185.5 347.9844,185.5 C348.4531,185.5 348.8438,185.8906 348.8438,186.3438 C348.8438,186.7344 348.5156,187.1875 347.9375,187.5938 C347.1875,188.1406 346.0313,188.4375 344.8125,188.4375 C341.9219,188.4375 339.8125,186.5469 339.8125,183.9688 L339.8125,182.8438 C339.8125,180.125 341.8125,178.0469 344.4375,178.0469 C345.3125,178.0469 345.9063,178.1875 346.8438,178.625 Z "/><text fill="#000000" font-family="sans-serif" font-size="12" lengthAdjust="spacingAndGlyphs" textLength="82" x="358.5" y="187.1074">VmTenement</text><line style="stroke: #A80036; stroke-width: 1.5;" x1="330.5" x2="442.5" y1="198.9531" y2="198.9531"/><line style="stroke: #A80036; stroke-width: 1.5;" x1="330.5" x2="442.5" y1="206.9531" y2="206.9531"/><!--class BlockTenement--><rect fill="#FEFECE" filter="url(#f1fglxbde389u6)" height="48" id="BlockTenement" style="stroke: #A80036; stroke-width: 1.5;" width="128" x="166.5" y="166.9531"/><ellipse cx="181.5" cy="182.9531" fill="#ADD1B2" rx="11" ry="11" style="stroke: #A80036; stroke-width: 1.0;"/><path d="M183.8438,178.625 L184.0156,178.7031 C184.2344,178.3906 184.4375,178.2969 184.7344,178.2969 C185.0313,178.2969 185.3125,178.4375 185.4688,178.7031 C185.5625,178.8594 185.5781,178.9844 185.5781,179.4219 L185.5781,180.8438 C185.5781,181.2656 185.5469,181.4531 185.4375,181.6094 C185.2656,181.8281 185,181.9688 184.7344,181.9688 C184.5156,181.9688 184.2813,181.8594 184.1406,181.7188 C184,181.5938 183.9688,181.4688 183.9063,181.0625 C183.8125,180.6563 183.6406,180.4375 183.1563,180.1563 C182.6875,179.9063 182.0781,179.75 181.5,179.75 C179.7656,179.75 178.5156,181.0625 178.5156,182.8438 L178.5156,183.9375 C178.5156,185.6406 179.8125,186.7344 181.8594,186.7344 C182.625,186.7344 183.3125,186.6094 183.7344,186.3438 C183.9219,186.25 183.9219,186.25 184.375,185.7656 C184.5625,185.5781 184.7656,185.5 184.9844,185.5 C185.4531,185.5 185.8438,185.8906 185.8438,186.3438 C185.8438,186.7344 185.5156,187.1875 184.9375,187.5938 C184.1875,188.1406 183.0313,188.4375 181.8125,188.4375 C178.9219,188.4375 176.8125,186.5469 176.8125,183.9688 L176.8125,182.8438 C176.8125,180.125 178.8125,178.0469 181.4375,178.0469 C182.3125,178.0469 182.9063,178.1875 183.8438,178.625 Z "/><text fill="#000000" font-family="sans-serif" font-size="12" lengthAdjust="spacingAndGlyphs" textLength="96" x="195.5" y="187.1074">BlockTenement</text><line style="stroke: #A80036; stroke-width: 1.5;" x1="167.5" x2="293.5" y1="198.9531" y2="198.9531"/><line style="stroke: #A80036; stroke-width: 1.5;" x1="167.5" x2="293.5" y1="206.9531" y2="206.9531"/><!--class TenantId--><rect fill="#FEFECE" filter="url(#f1fglxbde389u6)" height="48" id="TenantId" style="stroke: #A80036; stroke-width: 1.5;" width="87" x="121" y="28.9531"/><ellipse cx="136" cy="44.9531" fill="#ADD1B2" rx="11" ry="11" style="stroke: #A80036; stroke-width: 1.0;"/><path d="M138.3438,40.625 L138.5156,40.7031 C138.7344,40.3906 138.9375,40.2969 139.2344,40.2969 C139.5313,40.2969 139.8125,40.4375 139.9688,40.7031 C140.0625,40.8594 140.0781,40.9844 140.0781,41.4219 L140.0781,42.8438 C140.0781,43.2656 140.0469,43.4531 139.9375,43.6094 C139.7656,43.8281 139.5,43.9688 139.2344,43.9688 C139.0156,43.9688 138.7813,43.8594 138.6406,43.7188 C138.5,43.5938 138.4688,43.4688 138.4063,43.0625 C138.3125,42.6563 138.1406,42.4375 137.6563,42.1563 C137.1875,41.9063 136.5781,41.75 136,41.75 C134.2656,41.75 133.0156,43.0625 133.0156,44.8438 L133.0156,45.9375 C133.0156,47.6406 134.3125,48.7344 136.3594,48.7344 C137.125,48.7344 137.8125,48.6094 138.2344,48.3438 C138.4219,48.25 138.4219,48.25 138.875,47.7656 C139.0625,47.5781 139.2656,47.5 139.4844,47.5 C139.9531,47.5 140.3438,47.8906 140.3438,48.3438 C140.3438,48.7344 140.0156,49.1875 139.4375,49.5938 C138.6875,50.1406 137.5313,50.4375 136.3125,50.4375 C133.4219,50.4375 131.3125,48.5469 131.3125,45.9688 L131.3125,44.8438 C131.3125,42.125 133.3125,40.0469 135.9375,40.0469 C136.8125,40.0469 137.4063,40.1875 138.3438,40.625 Z "/><text fill="#000000" font-family="sans-serif" font-size="12" lengthAdjust="spacingAndGlyphs" textLength="55" x="150" y="49.1074">TenantId</text><line style="stroke: #A80036; stroke-width: 1.5;" x1="122" x2="207" y1="60.9531" y2="60.9531"/><line style="stroke: #A80036; stroke-width: 1.5;" x1="122" x2="207" y1="68.9531" y2="68.9531"/><!--class TenementCode--><rect fill="#FEFECE" filter="url(#f1fglxbde389u6)" height="48" id="TenementCode" style="stroke: #A80036; stroke-width: 1.5;" width="127" x="286" y="28.9531"/><ellipse cx="301" cy="44.9531" fill="#ADD1B2" rx="11" ry="11" style="stroke: #A80036; stroke-width: 1.0;"/><path d="M303.3438,40.625 L303.5156,40.7031 C303.7344,40.3906 303.9375,40.2969 304.2344,40.2969 C304.5313,40.2969 304.8125,40.4375 304.9688,40.7031 C305.0625,40.8594 305.0781,40.9844 305.0781,41.4219 L305.0781,42.8438 C305.0781,43.2656 305.0469,43.4531 304.9375,43.6094 C304.7656,43.8281 304.5,43.9688 304.2344,43.9688 C304.0156,43.9688 303.7813,43.8594 303.6406,43.7188 C303.5,43.5938 303.4688,43.4688 303.4063,43.0625 C303.3125,42.6563 303.1406,42.4375 302.6563,42.1563 C302.1875,41.9063 301.5781,41.75 301,41.75 C299.2656,41.75 298.0156,43.0625 298.0156,44.8438 L298.0156,45.9375 C298.0156,47.6406 299.3125,48.7344 301.3594,48.7344 C302.125,48.7344 302.8125,48.6094 303.2344,48.3438 C303.4219,48.25 303.4219,48.25 303.875,47.7656 C304.0625,47.5781 304.2656,47.5 304.4844,47.5 C304.9531,47.5 305.3438,47.8906 305.3438,48.3438 C305.3438,48.7344 305.0156,49.1875 304.4375,49.5938 C303.6875,50.1406 302.5313,50.4375 301.3125,50.4375 C298.4219,50.4375 296.3125,48.5469 296.3125,45.9688 L296.3125,44.8438 C296.3125,42.125 298.3125,40.0469 300.9375,40.0469 C301.8125,40.0469 302.4063,40.1875 303.3438,40.625 Z "/><text fill="#000000" font-family="sans-serif" font-size="12" lengthAdjust="spacingAndGlyphs" textLength="95" x="315" y="49.1074">TenementCode</text><line style="stroke: #A80036; stroke-width: 1.5;" x1="287" x2="412" y1="60.9531" y2="60.9531"/><line style="stroke: #A80036; stroke-width: 1.5;" x1="287" x2="412" y1="68.9531" y2="68.9531"/><!--link TenantId to Tenant--><path d="M127,92.4971 C122.956,97.2341 119.033,102.1141 115.5,106.9531 C104.8554,121.5301 94.7547,138.7411 86.6645,153.7002 " fill="none" id="TenantId-Tenant" style="stroke: #A80036; stroke-width: 1.0;"/><polygon fill="none" points="122.216,87.3511,140.821,77.2101,132.601,96.7401,122.216,87.3511" style="stroke: #A80036; stroke-width: 1.0;"/><text fill="#000000" font-family="sans-serif" font-size="13" lengthAdjust="spacingAndGlyphs" textLength="32" x="116.5" y="120.02">Uses</text><!--link TenantId to VmTenement--><path d="M204.249,90.5531 C217.743,102.0131 233.271,114.2001 248.5,123.9531 C274.617,140.6775 283.521,140.5764 311.5,153.9531 C320.23,158.1271 329.528,162.5821 338.499,166.8852 " fill="none" id="TenantId-VmTenement" style="stroke: #A80036; stroke-width: 1.0;"/><polygon fill="none" points="199.381,95.5941,188.954,77.1471,208.608,85.0651,199.381,95.5941" style="stroke: #A80036; stroke-width: 1.0;"/><text fill="#000000" font-family="sans-serif" font-size="13" lengthAdjust="spacingAndGlyphs" textLength="32" x="249.5" y="120.02">Uses</text><!--link TenantId to BlockTenement--><path d="M156.744,97.3521 C156.732,106.4141 157.978,115.7111 161.5,123.9531 C168.73,140.8735 182.662,155.529 196.126,166.7026 " fill="none" id="TenantId-BlockTenement" style="stroke: #A80036; stroke-width: 1.0;"/><polygon fill="none" points="149.79,96.5251,158.574,77.2421,163.733,97.7941,149.79,96.5251" style="stroke: #A80036; stroke-width: 1.0;"/><text fill="#000000" font-family="sans-serif" font-size="13" lengthAdjust="spacingAndGlyphs" textLength="32" x="162.5" y="120.02">Uses</text><!--link TenementCode to VmTenement--><path d="M361.116,96.6491 C367.423,119.8301 374.974,147.5883 380.193,166.7694 " fill="none" id="TenementCode-VmTenement" style="stroke: #A80036; stroke-width: 1.0;"/><polygon fill="none" points="354.272,98.1601,355.777,77.0241,367.781,94.4841,354.272,98.1601" style="stroke: #A80036; stroke-width: 1.0;"/><text fill="#000000" font-family="sans-serif" font-size="13" lengthAdjust="spacingAndGlyphs" textLength="32" x="369.5" y="120.02">Uses</text><!--link TenementCode to BlockTenement--><path d="M316.121,92.1001 C295.112,116.1111 268.682,146.316 250.786,166.7694 " fill="none" id="TenementCode-BlockTenement" style="stroke: #A80036; stroke-width: 1.0;"/><polygon fill="none" points="310.875,87.4661,329.313,77.0241,321.411,96.6851,310.875,87.4661" style="stroke: #A80036; stroke-width: 1.0;"/><text fill="#000000" font-family="sans-serif" font-size="13" lengthAdjust="spacingAndGlyphs" textLength="32" x="302.5" y="120.02">Uses</text><!--
@startuml
title Virtual Hosting - Class Diagram

class Tenant {
  +TenantId tenantId
  +String sshKey
}

class VmTenement
class BlockTenement

class TenantId
class TenementCode

TenantId <|-down- Tenant: Uses
TenantId <|-down- VmTenement: Uses
TenantId <|-down- BlockTenement: Uses
TenementCode <|-down- VmTenement: Uses
TenementCode <|-down- BlockTenement: Uses
@enduml

PlantUML version 1.2018.12(Sun Oct 21 10:15:15 UTC 2018)
(GPL source distribution)
Java Runtime: Java(TM) SE Runtime Environment
JVM: Java HotSpot(TM) 64-Bit Server VM
Java Version: 1.7.0_25-b15
Operating System: Linux
Default Encoding: UTF-8
Language: en
Country: US
--></g></svg>